<svg xmlns="http://www.w3.org/2000/svg" viewBox="0 0 128 128" fill="none">
  <!-- Gear body -->
  <circle cx="64" cy="64" r="38" fill="#b7410e" opacity="0.15"/>
  <circle cx="64" cy="64" r="38" stroke="#b7410e" stroke-width="3" fill="none"/>
  <!-- Gear teeth -->
  <g stroke="#b7410e" stroke-width="3" stroke-linecap="round">
    <line x1="64" y1="16" x2="64" y2="26"/>
    <line x1="64" y1="102" x2="64" y2="112"/>
    <line x1="16" y1="64" x2="26" y2="64"/>
    <line x1="102" y1="64" x2="112" y2="64"/>
    <line x1="30.1" y1="30.1" x2="37.2" y2="37.2"/>
    <line x1="90.8" y1="90.8" x2="97.9" y2="97.9"/>
    <line x1="30.1" y1="97.9" x2="37.2" y2="90.8"/>
    <line x1="90.8" y1="37.2" x2="97.9" y2="30.1"/>
  </g>
  <!-- Hand / palm -->
  <g stroke="#b7410e" stroke-width="3.5" stroke-linecap="round" stroke-linejoin="round" fill="none">
    <!-- Palm base -->
    <path d="M48 78 C48 85, 55 90, 64 90 C73 90, 80 85, 80 78 L80 62"/>
    <!-- Fingers -->
    <path d="M52 68 L52 48 C52 44.5, 55 42, 58 42 C61 42, 64 44.5, 64 48 L64 58"/>
    <path d="M64 58 L64 44 C64 40.5, 67 38, 70 38 C73 38, 76 40.5, 76 44 L76 56"/>
    <path d="M76 56 L76 48 C76 44.5, 79 42, 82 42 C85 42, 87 44.5, 87 48 L87 64 C87 72, 82 80, 76 84"/>
    <!-- Thumb -->
    <path d="M52 68 C52 68, 44 64, 42 58 C40 52, 44 48, 48 50 C50 51, 48 56, 48 60"/>
  </g>
  <!-- Inner gear ring -->
  <circle cx="64" cy="64" r="28" stroke="#b7410e" stroke-width="1.5" stroke-dasharray="4 6" fill="none" opacity="0.3"/>
</svg>
